G04 Layer: TopPasteMaskLayer*
G04 EasyEDA v6.5.38, 2023-11-10 20:44:27*
G04 a2ce8b3098ff4e71ad7b38c7765d7841,93b1fbd85c6d4c91ac372c37b1ebbe7b,10*
G04 Gerber Generator version 0.2*
G04 Scale: 100 percent, Rotated: No, Reflected: No *
G04 Dimensions in millimeters *
G04 leading zeros omitted , absolute positions ,4 integer and 5 decimal *
%FSLAX45Y45*%
%MOMM*%

%ADD10R,3.0000X2.0000*%

%LPD*%
G36*
X3223920Y1623110D02*
G01*
X3218891Y1618081D01*
X3218891Y1538122D01*
X3223920Y1533093D01*
X3246678Y1533093D01*
X3246678Y1570126D01*
X3279698Y1570126D01*
X3279698Y1533093D01*
X3303879Y1533093D01*
X3308908Y1538122D01*
X3308908Y1618081D01*
X3303879Y1623110D01*
G37*
G36*
X3223920Y1463090D02*
G01*
X3218891Y1458112D01*
X3218891Y1379118D01*
X3223920Y1374089D01*
X3303879Y1374089D01*
X3308908Y1379118D01*
X3308908Y1458112D01*
X3303879Y1463090D01*
X3279698Y1463090D01*
X3279698Y1425092D01*
X3246678Y1425092D01*
X3246678Y1463090D01*
G37*
G36*
X2525420Y1623110D02*
G01*
X2520391Y1618081D01*
X2520391Y1538122D01*
X2525420Y1533093D01*
X2548178Y1533093D01*
X2548178Y1570126D01*
X2581198Y1570126D01*
X2581198Y1533093D01*
X2605379Y1533093D01*
X2610408Y1538122D01*
X2610408Y1618081D01*
X2605379Y1623110D01*
G37*
G36*
X2525420Y1463090D02*
G01*
X2520391Y1458112D01*
X2520391Y1379118D01*
X2525420Y1374089D01*
X2605379Y1374089D01*
X2610408Y1379118D01*
X2610408Y1458112D01*
X2605379Y1463090D01*
X2581198Y1463090D01*
X2581198Y1425092D01*
X2548178Y1425092D01*
X2548178Y1463090D01*
G37*
G36*
X1814220Y1623110D02*
G01*
X1809191Y1618081D01*
X1809191Y1538122D01*
X1814220Y1533093D01*
X1836978Y1533093D01*
X1836978Y1570126D01*
X1869998Y1570126D01*
X1869998Y1533093D01*
X1894179Y1533093D01*
X1899208Y1538122D01*
X1899208Y1618081D01*
X1894179Y1623110D01*
G37*
G36*
X1814220Y1463090D02*
G01*
X1809191Y1458112D01*
X1809191Y1379118D01*
X1814220Y1374089D01*
X1894179Y1374089D01*
X1899208Y1379118D01*
X1899208Y1458112D01*
X1894179Y1463090D01*
X1869998Y1463090D01*
X1869998Y1425092D01*
X1836978Y1425092D01*
X1836978Y1463090D01*
G37*
G36*
X1103020Y1623110D02*
G01*
X1097991Y1618081D01*
X1097991Y1538122D01*
X1103020Y1533093D01*
X1125778Y1533093D01*
X1125778Y1570126D01*
X1158798Y1570126D01*
X1158798Y1533093D01*
X1182979Y1533093D01*
X1188008Y1538122D01*
X1188008Y1618081D01*
X1182979Y1623110D01*
G37*
G36*
X1103020Y1463090D02*
G01*
X1097991Y1458112D01*
X1097991Y1379118D01*
X1103020Y1374089D01*
X1182979Y1374089D01*
X1188008Y1379118D01*
X1188008Y1458112D01*
X1182979Y1463090D01*
X1158798Y1463090D01*
X1158798Y1425092D01*
X1125778Y1425092D01*
X1125778Y1463090D01*
G37*
D10*
G01*
X1369618Y4172000D03*
G01*
X1369618Y3918000D03*
G01*
X1369618Y3664000D03*
G01*
X1369618Y3410000D03*
G01*
X1369618Y3156000D03*
G01*
X1369618Y2902000D03*
G01*
X1369618Y2648000D03*
G01*
X3029635Y2648000D03*
G01*
X3029635Y2902000D03*
G01*
X3029635Y3156000D03*
G01*
X3029635Y3410000D03*
G01*
X3029635Y3664000D03*
G01*
X3029635Y3918000D03*
G01*
X3029635Y4172000D03*
M02*
